<svg id="Layer_1" data-name="Layer 1" xmlns="http://www.w3.org/2000/svg" xmlns:xlink="http://www.w3.org/1999/xlink" viewBox="0 0 2000 2000"><defs><style>.cls-1{fill:url(#Unbenannter_Verlauf_22);}.cls-2{fill:#fff;}.cls-3{fill:url(#Unbenannter_Verlauf_22-2);}.cls-4{fill:none;}</style><linearGradient id="Unbenannter_Verlauf_22" x1="317.94" y1="1682.05" x2="1682.06" y2="317.94" gradientUnits="userSpaceOnUse"><stop offset="0" stop-color="#2e73ff"/><stop offset="1" stop-color="#ff0032"/></linearGradient><linearGradient id="Unbenannter_Verlauf_22-2" x1="804.57" y1="1099.95" x2="1004.48" y2="900.05" xlink:href="#Unbenannter_Verlauf_22"/></defs><title>Vanced1</title><path class="cls-1" d="M1868.08,561c-27.36-103-108-184.1-210.5-211.66-22.19-6-89.73-24.19-385.72-33-142.18-4.25-270.58-4.3-271.86-4.3s-129.68.05-271.87,4.3c-296,8.85-363.52,27.06-385.65,33C240,376.91,159.27,458,131.93,561c-36,135.24-37.05,407.4-37.05,438,0,30.8,1,304.87,37,440.06,27.35,103,108,184.09,210.5,211.65,22.19,6,89.73,24.2,385.71,33C870.32,1688,998.72,1688,1000,1688s129.68,0,271.86-4.3c296-8.85,363.53-27.06,385.67-33,102.51-27.58,183.2-108.68,210.54-211.61,36-135.25,37-409.32,37-440.12C1905.12,968.35,1904.08,696.19,1868.08,561ZM1776,1414.53c-18.63,70.13-73.51,125.35-143.19,144.1-126.3,34.06-632.76,34.06-632.76,34.06s-506.46,0-632.76-34.06c-69.68-18.75-124.56-74-143.19-144.1-33.84-127.1-33.84-415.59-33.84-415.59s0-286.37,33.84-413.47c18.63-70.13,73.51-125.36,143.19-144.1C493.54,407.31,1000,407.31,1000,407.31s506.46,0,632.76,34.06c69.68,18.74,124.56,74,143.19,144.1,33.84,127.1,33.84,413.47,33.84,413.47S1809.79,1287.43,1776,1414.53Z"/><path class="cls-2" d="M1266.66,936.78,882.37,688.84a34.94,34.94,0,0,0-47.8,12.59l-.75,1.27a35,35,0,0,0,12.59,47.8L1213.9,971.61c23.91,14.38,23.77,49.09-.25,63.29L844.46,1253a35,35,0,0,0-13,47.69l.74,1.28a35,35,0,0,0,47.69,13l386.24-244.83C1314.93,1039.21,1315.21,968.11,1266.66,936.78Z"/><path class="cls-3" d="M1070.45,968,881.23,861.41c-24.5-13.8-54.78,3.89-54.78,32v213.18c0,28.11,30.28,45.8,54.78,32L1070.45,1032C1095.39,1018,1095.39,982,1070.45,968Z"/><rect class="cls-4" width="2000" height="2000"/></svg>